<svg xmlns:xlink="http://www.w3.org/1999/xlink" xmlns="http://www.w3.org/2000/svg" viewBox="474.13261000000006 246.68 223.52739000000003 215.92330158730158" style="max-height: 500px" width="223.52739000000003" height="215.92330158730158"><linearGradient y2="346.321" y1="346.321" x2="645.038" x1="481.369" gradientUnits="userSpaceOnUse" id="a"><stop stop-color="#e74e0f" offset="0"/><stop stop-color="#e20613" offset="1"/></linearGradient><linearGradient id="b"><stop stop-color="#f6a500" offset=".24"/><stop stop-color="#ffec00" offset="1"/></linearGradient><linearGradient y2="322.072" y1="322.072" xlink:href="#b" x2="690.717" x1="544.683" gradientUnits="userSpaceOnUse" id="c"/><linearGradient y2="395.913" y1="395.913" xlink:href="#b" x2="694.487" x1="594.084" gradientUnits="userSpaceOnUse" id="d"/><path fill="url(#a)" d="m640.47 425.12c-6.54 4.61-13.27 8.88-20.68 12.02-54.72 23.21-116.75-5.05-133.99-62.08-7.63-25.23-5.49-49.79 7.06-73.14 8.88-16.51 21.84-29.17 38-38.57 16.94-9.87 35.33-14.73 54.87-15.5.29-.01.59-.09.85-.02.65.17 1.67-1.15 1.85.09.16 1.09-.3 2.32-2.03 2.39-6.11.25-12.05 1.51-17.8 3.51-23.35 8.11-41.31 22.59-52.32 44.97-6.14 12.48-7.58 25.74-5.66 39.42 4.71 33.51 30.89 60.83 66.09 67.45 23.26 4.37 44.86-.14 64.51-13.47.64 1.4 1.28 2.8 1.91 4.2 1.88 5.2 2.3 10.55 1.57 15.99-.58 4.33-1.61 8.54-3.83 12.36-.15.13-.29.27-.44.4z"/><path fill="url(#c)" d="m643.13 396.38c-.64-1.4-1.28-2.8-1.91-4.2-3.95-8.1-9.8-14.75-16.48-20.62-19.97-17.53-42.59-30.35-68.33-37.43-3.23-.89-6.53-1.54-9.78-2.34-.6-.15-1.15-.48-1.94-.82 1.1-.67 2.18-.68 3.15-.98 20.84-6.47 41.97-12.21 61.23-22.89 8.59-4.76 16.86-9.97 23.32-17.56 2.15-2.52 3.93-5.28 4.97-8.43 2.33-7.03-.04-13.82-6.62-19.05-6.88-5.48-14.97-8.18-23.43-9.96-5.4-1.14-10.88-1.6-16.4-1.47-.64.02-1.86.52-1.83-.67.02-1.03.26-2.22 1.97-2.18 7.45.13 14.83.8 22.15 2.17 12.38 2.31 24.21 6.12 34.97 12.84 4.08 2.55 7.79 5.55 11.06 9.08 9.34 10.1 11.07 22.8 4.68 34.99-.99 1.89-2.11 3.73-3.28 5.52-.77 1.18-.64 1.57.81 1.93 9.37 2.35 18.41 5.65 27.2 9.64.68.31 1.49.46 2.07 1.25-7.14.58-14.08 1.61-20.77 3.93-16.12 5.57-25.39 16.77-27.85 33.63-.86 5.9-.96 11.79-.37 17.71.06.59-.17 1.35.71 1.59.48 1.8.29 3.68.41 5.49.2 2.91.75 5.87.29 8.83z"/><path fill="url(#d)" d="m643.13 396.38c.46-2.96-.09-5.91-.28-8.84-.12-1.81.06-3.69-.41-5.49-.58-14.95 1.38-29.1 12.92-40.15 3.07-2.93 6.64-5.15 10.54-6.86.89-.39 1.54-.46 2.31.25 9.41 8.72 17.61 18.36 22.38 30.44 7.07 17.92 4.31 34.69-6.47 50.32-8.34 12.08-19.6 20.85-32.47 27.64-17.97 9.47-37.11 14.14-57.56 13.28 2.04-.64 4.1-1.25 6.13-1.92 12.29-4.03 23.72-9.56 32.67-19.21 2.99-3.22 5.93-6.53 7.58-10.72l-.04.02c.32.05.37-.18.44-.4 2.23-3.83 3.26-8.04 3.83-12.36.73-5.45.31-10.81-1.57-16z"/><path fill="#006eb6" d="m69.02 302.55c.29.24.38.36.5.41 9.29 3.67 12.48 10.98 11.9 20.33-.58 9.34-5.52 15.66-14.13 19.14-5.47 2.21-11.28 2.45-17.07 2.52-8.22.1-16.44-.02-24.66.09-1.74.02-2.11-.51-2.1-2.15.05-21.98.02-43.96.07-65.94 0-1.76-.26-2.78-2.3-2.85-1.77-.06-3.53-.48-5.31-.67-1.14-.13-1.83-.45-1.73-1.83.12-1.7.12-3.43 0-5.13-.09-1.4.5-1.64 1.75-1.64 12.23.07 24.45.04 36.68.16 4.07.04 8.12.54 12.07 1.65 8.65 2.45 13.83 8.97 14.06 17.97.17 7.12-1.11 13.25-9.73 17.94zm-28.81 19.36c0 3.92.02 7.84-.02 11.76-.01 1 .12 1.57 1.36 1.55 3.57-.05 7.14.02 10.68-.54 6.76-1.06 10.56-4.26 11.78-10.07 1.43-6.83-1.95-14.44-9.41-15.37-4.4-.55-8.84-.41-13.26-.46-1.21-.01-1.14.76-1.13 1.58zm-.45-18.88c.13.02.26.03.39.05.31-.48.68-.93.93-1.43 1.08-2.19 2.57-3.39 5.25-3.52 3.1-.16 6.25-.52 9.27-1.47 3.1-.97 5.22-2.88 5.97-6.09.42-1.81.63-3.66.46-5.52-.37-3.96-2.29-8.42-7.96-9.12-3.28-.41-6.55-.31-9.83-.4-1.46-.04-3.57-.55-4.21.18-.76.87-.27 2.84-.27 4.33-.01 7.65 0 15.32 0 22.99zm347.63-13.72c0-5.93-.02-11.56.02-17.19.01-1.12-.5-1.29-1.43-1.26-1.64.05-3.29-.04-4.93.03-1.09.05-1.46-.27-1.51-1.42-.25-5.69-.28-5.63 5.33-6.29 4.68-.55 9.34-1.25 14.01-1.88.71-.09 1.42-.11 2.13-.22 1.4-.21 1.8.33 1.78 1.74-.14 12.06-.2 24.12-.27 36.18-.07 11.49-.1 22.98-.23 34.47-.02 1.43.43 1.76 1.8 1.77 5.31.01 5.26.06 5.18 5.41-.02 1.31-.47 1.67-1.7 1.81-5.96.7-11.92 1.42-17.85 2.3-1.63.24-1.95-.16-1.91-1.67.07-2.62.01-2.59-2.37-1.65-5.84 2.31-11.9 4.06-18.18 2.92-10.7-1.95-17.01-8.91-19.7-19.09-2.14-8.1-1.24-16.21 2.07-23.87 4.09-9.45 11.66-14.08 21.85-14.58 5.35-.27 10.52.7 15.91 2.49zm-.44 27.25h.42v-15.4c0-.85.05-1.56-.95-2.12-9.12-5.16-19.31-1.23-22.16 8.85-1.82 6.45-1.44 13 .88 19.32 1.48 4.04 4.49 6.58 8.73 7.4 4.07.78 8.1.05 12.08-.86 1.07-.25 1.01-1 1.01-1.8-.01-5.13-.01-10.26-.01-15.39zm-260.37-25.43c-.48-2.1.5-2.28 1.96-2.25 3.86.09 7.73.12 11.58-.01 1.75-.06 2.27.36 2.25 2.19-.09 13.42 0 26.84-.09 40.25-.01 1.98.33 2.72 2.51 2.62 4.02-.2 4.02-.05 4.02 3.93 0 5.44 0 5.38-5.45 5.87-5.05.45-10.1.98-15.13 1.6-1.62.2-2.5-.04-2.17-1.88.01-.07 0-.14 0-.21-.01-2.82 0-2.79-2.61-1.47-1.91.97-3.84 1.89-5.78 2.79-9.57 4.47-22.19.42-26.9-10.5-4.69-10.87-4.61-21.86.85-32.43 6.16-11.93 19.79-16.69 32.22-11.64.79.32 1.57.65 2.74 1.14zm-.06 25.1c0-5.42-.04-10.84.03-16.26.02-1.45-.41-2.1-1.9-2.08-2.07.03-4.15-.18-6.21-.01-6.45.53-10.93 3.77-13.17 9.91-1.66 4.54-1.81 9.22-1.04 13.92 1.22 7.48 5.4 11.85 12.32 12.87 2.76.4 5.55.2 8.34-.03 1.44-.12 1.68-.78 1.66-2.05-.06-5.42-.03-10.85-.03-16.27zm48.48-25.1c3.78-1.36 7.41-2.81 11.24-3.69 4.03-.93 8.06-1.19 12.09-.15 6.7 1.72 10.99 6.99 11.17 14.91.31 13.98.13 27.96.19 41.95 0 1.06-.38 1.32-1.37 1.31-4.5-.04-9.01-.09-13.51.02-1.67.04-1.42-.93-1.42-1.92 0-12.06 0-24.11-.01-36.17 0-1.35-.03-2.72-.24-4.05-.46-2.81-1.55-3.84-4.37-4.11-4.42-.42-8.66.51-12.85 1.79-1.29.39-1.03 1.34-1.03 2.22-.01 13.13.01 26.25-.01 39.38 0 3.26.46 2.78-2.84 2.81-3.72.03-7.44-.07-11.15.04-1.56.05-1.87-.47-1.86-1.93.05-14.34 0-28.68.08-43.02.01-1.84-.36-2.6-2.32-2.35-1.41.18-2.87-.1-4.28.07-2 .24-2.54-.61-2.31-2.42.11-.84.02-1.71.02-2.57 0-3.52.01-3.47 3.63-3.93 5.74-.72 11.47-1.49 17.19-2.3 3.31-.47 3.3-.52 3.76 2.69.05.42.12.84.2 1.42zm122.47-4.55c13.63.04 23.18 6.21 27.1 17.3 2.21 6.25 2.51 12.69 1.56 19.21-.56 3.85-1.73 7.5-3.71 10.86-3.37 5.73-8.28 9.58-14.65 11.46-6.82 2.01-13.71 2-20.48-.14-8.02-2.54-13.48-7.92-16.19-15.85-2.85-8.36-2.96-16.86 0-25.19 3.78-10.63 11.74-16.12 22.78-17.42 1.35-.18 2.71-.18 3.59-.23zm12.47 30.19c-.21-4.5-.31-9.13-2.29-13.47-2-4.38-5.51-6.14-10.15-6.06-4.67.07-8.04 2.07-9.81 6.54-1.28 3.24-1.67 6.62-1.83 10.05-.25 5.29-.04 10.54 1.87 15.59 2.37 6.25 7.88 7.45 13.02 6.86 4.12-.47 6.28-3.62 7.56-7.34 1.35-3.91 1.45-7.99 1.63-12.17zm137.99-.03c-5.36 0-10.72.04-16.08-.03-1.31-.02-1.75.3-1.69 1.66.09 2 .23 4 .64 5.95 1.84 8.6 8.4 12.55 17.62 10.66 4.21-.86 8.29-2.14 12.28-3.72 1.43-.57 2.18-.49 2.58 1.16.46 1.86 1.13 3.68 1.79 5.48.3.82.23 1.33-.59 1.74-9.79 4.85-20.03 7.98-31 5.93-10.7-2-17.08-9.16-19.87-19.34-2.1-7.67-1.67-15.47 1.23-22.92 3.93-10.09 11.66-15.32 22.29-16.52 4.1-.46 8.15-.83 12.22.52 9.39 3.11 14.51 9.64 16.07 19.23.48 2.98.36 5.97.46 8.97.04 1.3-.31 1.71-1.66 1.69-5.43-.08-10.87-.03-16.3-.03.01-.15.01-.29.01-.43zm-7.06-7.97c3.22 0 6.44.01 9.65-.01.59 0 1.27.21 1.4-.82.6-4.79-3.49-10.44-8.23-11.37-6.59-1.29-12.39 2.21-13.46 10.76-.15 1.17.29 1.48 1.4 1.46 3.09-.06 6.16-.02 9.24-.02zm-176.87-12.53c-.26 1.41.82 3.73-.45 4.71-.73.56-3.09-.82-4.63-1.51-3.94-1.78-8.08-2.28-12.34-2.1-5.46.24-9.23 3-10.99 8.07-2.46 7.07-2.6 14.29-.16 21.41 1.86 5.41 5.99 8.18 11.7 8.38 5.43.19 10.67-.89 15.83-2.32 1.75-.48 2.32.08 2.55 1.63.07.49.27.96.41 1.44 1.25 4.34 1.25 4.33-3 6.11-5.84 2.44-11.83 4.2-18.23 4.27-13.3.15-23.07-7.52-26.06-20.52-1.85-8.07-1.51-16.03 1.64-23.73 4.23-10.33 13.88-16.4 25.05-15.97 5.48.21 10.74 1.38 15.86 3.31 2.04.77 3.31 1.76 2.84 4.16-.15.74-.02 1.55-.02 2.66zm-105.88 97.43c.28.33.35.49.46.53 8.7 3.35 12.2 10.02 12.09 18.95-.11 9.13-4.29 15.78-12.5 19.83-5.05 2.49-10.55 3.05-16.06 3.16-9.29.17-18.59.05-27.88.17-1.97.03-1.55-1.15-1.55-2.22-.01-21.76-.01-43.53-.01-65.29 0-3.11 0-3.12-3.17-3.55-1.49-.2-2.97-.42-4.46-.55-1.2-.1-1.8-.55-1.69-1.87.18-2.12-.85-4.85.37-6.22 1.26-1.41 4.04-.45 6.14-.45 10.37-.03 20.73 0 31.1.08 3.79.03 7.55.45 11.26 1.26 10.89 2.38 16.96 11.16 15.64 22.27-.76 6.39-3.68 11.12-9.74 13.9zm-28.72 19.5c0 3.93.02 7.85-.02 11.78-.01.99.1 1.57 1.35 1.55 3.57-.05 7.15.02 10.7-.55 6.86-1.09 10.58-4.34 11.83-10.31 1.6-7.65-2.31-13.97-9.68-15.14-4.3-.68-8.7-.4-13.06-.46-1.25-.02-1.13.76-1.13 1.56.01 3.87.01 7.72.01 11.57zm-.44-18.3c.59-.86.93-1.21 1.1-1.63 1.1-2.65 3-3.92 5.94-3.89 1.7.02 3.41-.34 5.1-.62 3.5-.58 7.13-1.21 8.82-4.81 1.78-3.82 1.94-7.84.19-11.81-1.19-2.7-3.24-4.25-6.13-4.78-4.75-.88-9.56-.34-14.33-.6-1.29-.07-.62.93-.63 1.34-.07 4.07-.04 8.14-.04 12.2-.02 4.67-.02 9.35-.02 14.6zm168.06 18.37c-.17 8.24.4 18.46-.23 28.64-.6 9.61-4.97 14.84-14.22 17.48-8.98 2.56-18.07 2.31-27.18.72-2.88-.5-5.72-1.22-8.6-1.75-1.04-.19-1.43-.63-1.39-1.7.07-2.28.09-4.57 0-6.85-.06-1.39.43-1.42 1.62-1.17 7.02 1.47 14.11 2.24 21.29 1.81 1.42-.09 2.85-.25 4.24-.56 5.1-1.15 7.5-3.93 7.97-9.22.18-2.06.16-4.13.27-6.2.06-1.16-.33-1.33-1.39-.88-2.23.95-4.47 1.89-6.77 2.65-13.78 4.53-26.05-2.05-29.55-16.11-2.74-10.99-1.81-21.59 5.29-30.93 7.03-9.24 20.35-12.57 30.92-7.99.79.34 1.94 1.64 2.05-.61.03-.56.68-.38 1.07-.38 4.43-.01 8.86.05 13.3-.04 1.73-.03 1.32 1.1 1.32 2.01-.01 9.71-.01 19.42-.01 31.08zm-15.79-5.85v-11.34c0-7.39 0-7.41-7.55-6.96-6.31.38-10.82 3.46-13.08 9.37-2.35 6.14-2.34 12.44-.19 18.63 1.54 4.42 4.79 7.16 9.46 8.07 3.26.64 6.53.46 9.81.15 1.34-.12 1.59-.67 1.58-1.89-.07-5.33-.03-10.68-.03-16.03zm178.18-4.73c0 6.85.04 13.7-.03 20.55-.01 1.4.22 1.99 1.83 1.98 4.69-.04 4.69.03 4.69 4.78 0 4.37.01 4.41-4.37 4.9-5.61.62-11.23 1.12-16.84 1.75-1.3.15-1.55-.3-1.57-1.48-.04-3.39-.08-3.37-3.16-1.8-3.81 1.95-7.6 4.07-12.01 4.23-9.5.35-17.08-4.41-20.61-13.4-3.98-10.14-3.89-20.42.87-30.31 6.12-12.73 20.03-17.82 33.12-12.45.85.35 2.38 2.01 2.39-.79 0-.62.81-.42 1.26-.42 4.36-.02 8.72.05 13.08-.04 1.47-.03 1.37.76 1.37 1.74-.02 6.92-.02 13.84-.02 20.76zm-15.8 4.87c0-5.35-.06-10.7.04-16.05.03-1.61-.39-2.38-2.1-2.33-2 .06-4.01-.16-5.99 0-6.44.53-10.98 3.74-13.17 9.9-1.97 5.54-2 11.2-.35 16.82 1.7 5.75 5.59 9.17 11.57 9.99 2.76.38 5.55.2 8.34-.03 1.4-.12 1.7-.73 1.69-2.03-.07-5.43-.03-10.85-.03-16.27zm-235.72-29.67c13.63.06 23.33 6.54 27 18.24 2.43 7.75 2.48 15.61.05 23.38-2.33 7.47-7 12.99-14.27 16.14-5.66 2.45-11.61 2.92-17.65 2.16-15.76-1.98-23.29-13.59-23.86-27.49-.19-4.59.11-9.12 1.49-13.54 3.74-12.03 13.72-18.95 27.24-18.89zm-12.03 30.13c-.1 3.84.21 7.74 1.44 11.51 1.85 5.7 6.23 8.67 12.22 8.26 4.57-.31 7.36-3.06 8.63-7.18 2.51-8.17 2.62-16.46.05-24.63-1.63-5.17-5.25-7.54-10.48-7.44-5.63.11-8.85 2.53-10.51 7.97-1.16 3.71-1.43 7.54-1.35 11.51zm108.59.14c-.12-4.44.51-8.58 1.93-12.58 4.08-11.56 14.48-18.16 27.69-17.69 4.47.16 8.82.86 12.88 2.78 7.1 3.36 11.49 9.03 13.58 16.47 2.01 7.16 2.03 14.39.01 21.55-3.19 11.31-12.45 18.62-24.27 19.32-5.04.3-10.02 0-14.77-1.83-9.84-3.77-14.84-11.33-16.58-21.38-.4-2.26-.53-4.53-.47-6.64zm16.72-.73c-.05 4.41.2 8.53 1.61 12.48 2 5.59 6.57 8.5 12.47 7.84 4.45-.5 7.06-3.3 8.27-7.35 2.43-8.12 2.52-16.33-.01-24.43-1.62-5.17-5.24-7.54-10.47-7.46-5.55.09-8.78 2.45-10.46 7.75-1.17 3.73-1.48 7.56-1.41 11.17zm47.71-11.79c0-9.28.03-18.55-.03-27.83-.01-1.5.29-2.11 1.95-2.21 3.85-.24 7.68-.71 11.51-1.16 1.71-.2 2.58.03 2.46 2.16-.21 3.63.08 7.28-.11 10.91-.11 2.01.61 2.34 2.4 2.28 3.93-.13 7.86.01 11.79-.07 1.29-.02 1.77.32 1.71 1.67-.11 2.06-.11 4.14 0 6.21.08 1.46-.34 1.99-1.89 1.95-4.07-.1-8.15.03-12.22-.07-1.45-.03-1.77.47-1.76 1.82.05 10.78.02 21.55.04 32.33.01 2.91.98 3.98 3.89 3.72 3.33-.3 6.64-.92 9.94-1.53 1.11-.21 1.51.04 1.74 1.13.29 1.39.79 2.74 1.18 4.1.86 2.95.86 2.96-2.12 3.98-5.43 1.85-10.93 3.26-16.75 3.05-7.66-.27-12.66-4.68-13.39-12.26-.78-8.04-.18-16.11-.32-24.17-.05-2.01-.02-4.01-.02-6.01zm55.43-23.93c-.55.1-.75-.36-.99-.95-2.51-6.03-2.53-6.04 3.49-8.51 6.26-2.57 12.53-5.12 18.8-7.66 2.59-1.05 2.63-1.02 3.47 1.73.82 2.65 1.6 5.31 2.48 7.94.41 1.2.25 1.68-1.14 1.97-8.37 1.72-16.72 3.56-25.08 5.35-.27.05-.56.07-1.03.13z"/><path fill="#fff" d="m664.12 424.73c-.06.22-.12.45-.44.4.15-.13.29-.26.44-.4z"/></svg>